<svg xmlns="http://www.w3.org/2000/svg" version="1.1" xmlns:xlink="http://www.w3.org/1999/xlink" xmlns:svgjs="http://svgjs.dev/svgjs" width="1000" height="232" viewBox="0 0 1000 232"><g transform="matrix(1,0,0,1,-0.6060606060606801,-0.4641813662558718)"><svg viewBox="0 0 396 92" data-background-color="#fafafa" preserveAspectRatio="xMidYMid meet" height="232" width="1000" xmlns="http://www.w3.org/2000/svg" xmlns:xlink="http://www.w3.org/1999/xlink"><g id="tight-bounds" transform="matrix(1,0,0,1,0.24000000000003752,0.18407193027729818)"><svg viewBox="0 0 395.5199999999999 91.63185614862127" height="91.63185614862127" width="395.5199999999999"><g><svg viewBox="0 0 593.4755854749363 137.49309636923078" height="91.63185614862127" width="395.5199999999999"><g transform="matrix(1,0,0,1,0,19.002302030769236)"><svg viewBox="0 0 395.52 99.48849230769231" height="99.48849230769231" width="395.52"><g id="textblocktransform"><svg viewBox="0 0 395.52 99.48849230769231" height="99.48849230769231" width="395.52" id="textblock"><g><svg viewBox="0 0 395.52 99.48849230769231" height="99.48849230769231" width="395.52"><g transform="matrix(1,0,0,1,0,0)"><svg width="395.52" viewBox="1.0499999523162842 -38.22999954223633 158.67999267578125 39.90999984741211" height="99.48849230769231" data-palette-color="#130912"><path d="M1.64-1.78L1.64-1.78Q1.95-2.42 2.29-3.21 2.64-4 2.93-4.93L2.93-4.93 3.59-6.54Q3.15-7.2 2.7-7.97 2.25-8.74 1.88-9.55 1.51-10.35 1.28-11.16 1.05-11.96 1.05-12.72L1.05-12.72Q1.05-12.77 1.43-12.81 1.81-12.84 2.38-12.87 2.95-12.89 3.63-12.9 4.3-12.92 4.87-12.93 5.44-12.94 5.82-12.95 6.2-12.96 6.2-12.96L6.2-12.96Q6.76-14.43 7.3-15.75 7.84-17.07 8.37-18.41 8.91-19.75 9.45-21.15 9.99-22.56 10.52-24.17L10.52-24.17Q11.55-27.2 12.52-29.49 13.5-31.79 14.36-33.76L14.36-33.76Q14.45-34.01 14.69-34.22 14.92-34.42 15.19-34.57 15.45-34.72 15.71-34.81 15.97-34.91 16.11-34.96L16.11-34.96Q16.21-34.99 16.86-35.18 17.5-35.38 18.33-35.6 19.17-35.82 19.98-35.99 20.8-36.16 21.29-36.16L21.29-36.16 21.73-36.16Q22.12-36.16 22.47-35.97 22.83-35.79 22.95-35.25L22.95-35.25Q24.12-32.25 25.45-28.7 26.78-25.15 28.05-20.87L28.05-20.87Q28.74-18.58 29.39-16.53 30.05-14.48 30.71-12.52 31.37-10.57 32.04-8.62 32.71-6.67 33.42-4.59L33.42-4.59Q33.64-3.71 33.87-3.2 34.11-2.69 34.3-2.39 34.5-2.1 34.62-1.97 34.74-1.83 34.74-1.68L34.74-1.68Q34.74-1.54 34.28-1.39L34.28-1.39 29.03 0.32Q28.44 0.54 27.83 0.76 27.22 0.98 26.68 1.15 26.15 1.32 25.74 1.43 25.34 1.54 25.17 1.54L25.17 1.54 25.02 1.54Q24.68 1.54 24.54 1.33 24.39 1.12 24.34 0.93L24.34 0.93Q24.1 0.12 23.85-0.52 23.61-1.17 23.38-1.82 23.14-2.47 22.91-3.2 22.68-3.93 22.46-4.93L22.46-4.93Q22.41-5.05 22.19-5.14 21.97-5.22 21.67-5.27 21.36-5.32 21.02-5.33 20.68-5.35 20.39-5.35L20.39-5.35Q19.46-5.35 18.88-5.33 18.31-5.32 17.87-5.31 17.43-5.3 17.03-5.29 16.63-5.27 16.04-5.27L16.04-5.27Q15.33-5.27 14.59-5.29 13.84-5.3 13.23-5.32L13.23-5.32 11.84-5.37Q11.21-3.61 10.57-2.08 9.94-0.54 9.2 1.1L9.2 1.1Q9.16 1.29 8.97 1.42 8.79 1.54 8.59 1.54L8.59 1.54Q8.45 1.54 8.42 1.51L8.42 1.51Q6.05 0.66 4.44-0.17 2.83-1 1.64-1.78ZM18.09-23.73L18.09-23.73Q17.5-21.56 16.93-19.79 16.36-18.02 15.88-16.65 15.41-15.28 15.06-14.34 14.72-13.4 14.58-12.89L14.58-12.89 14.58-12.67Q14.58-12.52 14.55-12.48L14.55-12.48 20.41-12.48Q20.14-13.67 19.84-14.89 19.53-16.11 19.24-17.46 18.95-18.8 18.65-20.34 18.36-21.88 18.09-23.73ZM66.87-34.91L66.87-34.91Q66.82-34.25 66.7-32.97 66.57-31.69 66.42-30.07 66.26-28.44 66.09-26.66 65.92-24.88 65.76-23.25 65.6-21.63 65.48-20.31 65.35-18.99 65.31-18.33L65.31-18.33Q64.79-13.13 63.56-9.41 62.33-5.69 60.32-3.32 58.32-0.95 55.53 0.16 52.73 1.27 49.07 1.27L49.07 1.27Q46.56 1.27 44.33 0.35 42.11-0.56 40.45-2.22 38.79-3.88 37.83-6.21 36.86-8.54 36.86-11.4L36.86-11.4Q36.86-11.77 36.92-12.73 36.98-13.7 37.09-15.09 37.2-16.48 37.34-18.25 37.47-20.02 37.62-22.02L37.62-22.02 37.91-26.07Q38.06-28.3 38.13-29.77 38.21-31.25 38.29-32.15 38.38-33.06 38.55-33.47 38.72-33.89 39.08-34.01L39.08-34.01 47.41-35.86Q47.73-35.96 48.07-35.96L48.07-35.96Q48.46-35.96 48.59-35.74 48.73-35.52 48.73-34.91L48.73-34.91 46.87-15.67Q46.82-14.82 46.7-13.82 46.58-12.82 46.58-11.77L46.58-11.77Q46.58-11.13 46.74-10.38 46.9-9.62 47.31-8.95 47.73-8.28 48.45-7.82 49.17-7.37 50.31-7.37L50.31-7.37Q51.71-7.37 52.56-7.97 53.42-8.57 53.93-9.56 54.44-10.55 54.67-11.8 54.9-13.06 55.05-14.38L55.05-14.38Q55.17-15.92 55.34-17.99 55.52-20.07 55.69-22.44L55.69-22.44 56.39-32.18Q56.44-32.62 56.46-32.91 56.47-33.2 56.52-33.4 56.56-33.59 56.72-33.69 56.88-33.79 57.22-33.84L57.22-33.84 65.55-35.86Q65.87-35.96 66.21-35.96L66.21-35.96Q66.55-35.96 66.71-35.75 66.87-35.55 66.87-34.91ZM75.53 0.88L75.53 0.78Q75.65-1 75.78-2.66 75.9-4.32 76-5.88L76-5.88 76.87-17.41Q77.02-18.73 77.12-19.81 77.22-20.9 77.28-21.94 77.34-22.97 77.4-24.04 77.46-25.1 77.53-26.39L77.53-26.39Q76.73-26.42 75.84-26.42 74.95-26.42 73.97-26.42L73.97-26.42 69.26-26.42Q68.99-26.42 68.93-26.62 68.87-26.83 68.87-27L68.87-27 68.87-27.17 71.55-34.23 71.53-34.33Q71.53-34.45 71.69-34.53 71.85-34.62 72.41-34.67L72.41-34.67Q75.78-34.86 78.94-35.05 82.1-35.23 85.19-35.38 88.28-35.52 91.36-35.67 94.45-35.82 97.72-35.94L97.72-35.94Q98.02-35.94 98.35-35.86 98.68-35.79 98.68-35.33L98.68-35.33Q98.68-35.28 98.65-35.23 98.63-35.18 98.63-35.13L98.63-35.13Q98.24-34.13 97.91-33.23 97.58-32.32 97.26-31.45 96.94-30.57 96.61-29.66 96.28-28.76 95.89-27.76L95.89-27.76Q95.87-27.73 95.8-27.53 95.72-27.32 95.58-27.06 95.43-26.81 95.19-26.59 94.94-26.37 94.58-26.34L94.58-26.34Q94.45-26.37 94.33-26.37 94.21-26.37 94.06-26.37L94.06-26.37 87.54-26.37Q87.42-25.12 87.31-23.73 87.2-22.34 87.06-21.02L87.06-21.02 85.27-1.95Q85.25-1.73 85.19-1.51 85.13-1.29 84.86-1.2L84.86-1.2 77.95 1.29Q77.68 1.39 77.24 1.54 76.8 1.68 76.39 1.68L76.39 1.68Q76.04 1.68 75.79 1.51 75.53 1.34 75.53 0.88L75.53 0.88ZM107.61-16.65L107.61-16.65Q107.61-14.89 107.99-13.12 108.37-11.35 109.25-9.94 110.12-8.52 111.56-7.64 113.01-6.76 115.13-6.76L115.13-6.76Q116.76-6.86 118-7.43 119.23-8.01 120.12-8.92 121.01-9.84 121.6-11.02 122.18-12.21 122.53-13.51 122.87-14.82 123-16.19 123.14-17.55 123.14-18.82L123.14-18.82Q123.14-20.56 122.67-22.18 122.21-23.8 121.28-25.05 120.35-26.29 118.97-27.05 117.6-27.81 115.76-27.81L115.76-27.81Q114.32-27.81 113.16-27.27 112-26.73 111.1-25.84 110.2-24.95 109.55-23.79 108.9-22.63 108.48-21.4 108.05-20.17 107.84-18.93 107.63-17.7 107.61-16.65ZM112.37 1.27L112.37 1.27Q108.71 1.27 105.83-0.1 102.95-1.46 100.96-3.8 98.97-6.13 97.91-9.19 96.84-12.26 96.84-15.67L96.84-15.67Q96.84-19.51 97.93-22.74 99.02-25.98 100.97-28.48 102.92-30.98 105.62-32.7 108.32-34.42 111.54-35.25L111.54-35.25Q111.83-35.25 111.99-35.72 112.15-36.18 112.27-36.74 112.39-37.3 112.57-37.77 112.74-38.23 113.05-38.23L113.05-38.23Q117.79-37.74 121.57-36.56 125.36-35.38 128-33.18 130.63-30.98 132.04-27.62 133.44-24.27 133.44-19.43L133.44-19.43Q133.44-16.33 132.68-13.6 131.93-10.86 130.56-8.56 129.19-6.25 127.28-4.43 125.36-2.61 123.01-1.34 120.67-0.07 117.97 0.6 115.28 1.27 112.37 1.27ZM137.64-0.37L137.22-9.08Q137.22-9.11 137.21-9.13 137.2-9.16 137.2-9.18L137.2-9.18Q137.2-9.59 137.64-9.59L137.64-9.59Q137.86-9.59 138.12-9.38L138.12-9.38Q139.44-8.13 141.05-7.4 142.67-6.67 144.57-6.67L144.57-6.67Q145.08-6.67 145.74-6.77 146.4-6.88 146.99-7.14 147.57-7.4 147.98-7.81 148.38-8.23 148.38-8.86L148.38-8.86Q148.38-9.57 148.04-10.13 147.7-10.69 147.13-11.08L147.13-11.08Q146.91-11.23 146.47-11.57 146.03-11.91 145.47-12.35 144.91-12.79 144.3-13.29 143.69-13.79 143.14-14.25 142.59-14.7 142.15-15.06 141.71-15.43 141.49-15.63L141.49-15.63Q140.05-16.7 139.21-17.8 138.37-18.9 137.93-20.09 137.49-21.29 137.37-22.57 137.25-23.85 137.25-25.29L137.25-25.29Q137.25-27.44 138.27-29.37 139.3-31.3 141.16-32.73 143.03-34.16 145.64-35 148.26-35.84 151.45-35.84L151.45-35.84Q151.85-35.84 152.63-35.75 153.41-35.67 154.35-35.47 155.29-35.28 156.26-34.94 157.24-34.59 158.05-34.06L158.05-34.06Q158.32-33.86 158.47-33.67 158.63-33.47 158.68-33.06L158.68-33.06Q158.8-31.08 158.88-29.16 158.95-27.25 159.07-25.1L159.07-25.1Q159.07-24.68 158.9-24.55 158.73-24.41 158.46-24.41L158.46-24.41Q158.19-24.41 158.05-24.56L158.05-24.56Q157.34-25.27 156.58-25.95 155.82-26.64 154.99-27.16 154.16-27.69 153.22-28 152.28-28.32 151.19-28.32L151.19-28.32Q150.53-28.32 149.87-28.21 149.21-28.1 148.67-27.81 148.13-27.51 147.8-27 147.48-26.49 147.48-25.71L147.48-25.71Q147.48-24.88 147.68-24.27 147.89-23.66 148.72-23.12L148.72-23.12 154.58-19.14Q156.19-17.99 157.19-16.86 158.19-15.72 158.75-14.6 159.32-13.48 159.52-12.39 159.73-11.3 159.73-10.25L159.73-10.25Q159.73-8.54 159.17-7.03 158.61-5.52 157.63-4.24 156.66-2.95 155.35-1.94 154.04-0.93 152.55-0.21 151.06 0.51 149.47 0.89 147.87 1.27 146.33 1.27L146.33 1.27Q145.13 1.27 143.97 1.23 142.81 1.2 141.71 1.04 140.62 0.88 139.59 0.55 138.56 0.22 137.64-0.37L137.64-0.37Z" opacity="1" transform="matrix(1,0,0,1,0,0)" fill="#130912" class="undefined-text-0" data-fill-palette-color="primary" id="text-0"></path></svg></g></svg></g></svg></g></svg></g><g transform="matrix(1,0,0,1,419.00684531003077,0)"><svg viewBox="0 0 174.4687401649056 137.49309636923078" height="137.49309636923078" width="174.4687401649056"><g><svg xmlns="http://www.w3.org/2000/svg" xmlns:xlink="http://www.w3.org/1999/xlink" version="1.1" x="0" y="0" viewBox="0.4080076217651367 0.8300000429153442 543.8140258789062 428.56201171875" enable-background="new 0 0 544.75 430.391" xml:space="preserve" width="174.4687401649056" height="137.49309636923078" class="icon-icon-0" data-fill-palette-color="accent" id="icon-0"><g fill="#e77917" data-fill-palette-color="accent"><path d="M512.309 154.188c8.711-3.232 17.516-6.585 20.025-7.839 5.405-2.701 11.888-2.702 11.888-19.452 0-16.748-12.968-17.83-12.968-17.83s-28.637 0-36.741 0c-8.106 0-9.187 7.023-9.187 7.023v19.991l-8.803-0.66c-6.826-20.108-26.516-77.301-36.249-97.11-11.888-24.201-20.806-25.188-20.806-25.188C357.531 4.099 311.73 1.518 283.799 0.961c-2.893-0.071-6.589-0.126-11.044-0.129-0.334-0.002-0.647-0.002-0.972-0.002-0.323 0-0.639 0-0.973 0.002-4.456 0.003-8.152 0.058-11.045 0.129-27.93 0.557-73.731 3.138-135.667 12.162 0 0-8.918 0.987-20.806 25.188-9.748 19.837-29.477 77.159-36.277 97.192l-7.711 0.578V116.09c0 0-1.081-7.023-9.188-7.023-8.104 0-36.741 0-36.741 0s-12.967 1.082-12.967 17.83c0 16.75 6.482 16.75 11.888 19.452 2.383 1.19 10.437 4.272 18.698 7.346-15.204 6.773-29.819 21.187-29.819 51.594 0 32.018 0 124.619 0 124.619s0.005 14.06 9.401 24.788v53.141c0 11.904 9.652 21.555 21.556 21.555h25.326c11.902 0 21.553-9.65 21.553-21.555v-41.178c37.104 0 91.234 0 134.223 0h47.314c0 0 8.006 0 21.12 0 12.148 0 28.682 0 47.312 0 42.423 0 95.702 0 132.755 0v41.178c0 11.904 9.65 21.555 21.554 21.555h25.327c11.902 0 21.554-9.65 21.554-21.555v-51.572c10.866-10.867 10.87-26.356 10.87-26.356s0-92.601 0-124.619C541.041 175.607 527.115 161.16 512.309 154.188zM86.198 131.634c0 0 21.91-65.531 31.647-85.351 9.737-19.821 17.042-20.629 17.042-20.629 79.146-11.528 126.147-10.223 135.487-9.799 9.338-0.423 56.34-1.729 135.483 9.799 0 0 7.306 0.808 17.044 20.629 9.74 19.82 31.648 85.351 31.648 85.351s4.869 14.562-9.736 14.965c-13.713 0.379-156.924-2.448-174.439-2.795-17.515 0.347-160.728 3.175-174.44 2.795C81.329 146.196 86.198 131.634 86.198 131.634zM40.315 271.258c-4.015 0-4.222-3.592-4.222-3.592s0-25.135 0-41.398c0-16.262 11.826-13.729 11.826-13.729s52.806 1.056 64.845 1.69c12.038 0.633 12.885 9.715 12.885 9.715v43.723c0 3.59-3.593 3.592-3.593 3.592S44.331 271.258 40.315 271.258zM112.773 338.423c-8.165 0-14.783-6.618-14.783-14.784s6.618-14.783 14.783-14.783c8.167 0 14.785 6.617 14.785 14.783S120.94 338.423 112.773 338.423zM395.592 257.321H148.893c-2.334 0-4.227-1.184-4.227-2.644 0-1.459 1.893-2.643 4.227-2.643h246.699c2.336 0 4.227 1.184 4.227 2.643C399.818 256.138 397.928 257.321 395.592 257.321zM395.592 249.295H148.893c-2.334 0-4.227-1.184-4.227-2.643s1.893-2.643 4.227-2.643h246.699c2.336 0 4.227 1.184 4.227 2.643S397.928 249.295 395.592 249.295zM395.592 241.27H148.893c-2.334 0-4.227-1.184-4.227-2.643 0-1.46 1.893-2.644 4.227-2.644h246.699c2.336 0 4.227 1.184 4.227 2.644C399.818 240.086 397.928 241.27 395.592 241.27zM431.133 338.423c-8.165 0-14.782-6.618-14.782-14.784s6.617-14.783 14.782-14.783c8.166 0 14.785 6.617 14.785 14.783S439.299 338.423 431.133 338.423zM508.648 267.666c0 0-0.207 3.592-4.222 3.592-4.016 0-81.741 0-81.741 0s-3.593-0.002-3.593-3.592v-43.723c0 0 0.847-9.082 12.885-9.715 12.039-0.635 64.845-1.69 64.845-1.69s11.826-2.532 11.826 13.729C508.648 242.531 508.648 267.666 508.648 267.666z" fill="#e77917" data-fill-palette-color="accent"></path></g></svg></g></svg></g></svg></g><defs></defs></svg><rect width="395.5199999999999" height="91.63185614862127" fill="none" stroke="none" visibility="hidden"></rect></g></svg></g></svg>